<svg width="292" height="48" viewBox="0 0 292 48" fill="none" xmlns="http://www.w3.org/2000/svg">
<rect opacity="0.25" x="0.5" y="0.5" width="291" height="47" rx="2.5" stroke="white"/>
<path fill-rule="evenodd" clip-rule="evenodd" d="M26 38C33.732 38 40 31.732 40 24C40 16.268 33.732 10 26 10C18.268 10 12 16.268 12 24C12 31.732 18.268 38 26 38Z" fill="white"/>
<mask id="mask0_6_14" style="mask-type:alpha" maskUnits="userSpaceOnUse" x="12" y="10" width="28" height="28">
<path fill-rule="evenodd" clip-rule="evenodd" d="M26 38C33.732 38 40 31.732 40 24C40 16.268 33.732 10 26 10C18.268 10 12 16.268 12 24C12 31.732 18.268 38 26 38Z" fill="white"/>
</mask>
<g mask="url(#mask0_6_14)">
<path d="M36.8554 -0.953903C29.048 -0.953903 3.08691 13.393 3.08691 21.2011C3.08445 22.7188 12.2551 27.1657 12.7351 28.6054H16.9625V16.708L26.1526 25.899L35.3427 16.708V28.6054H39.5702C40.0486 27.1653 46.1684 27.4165 46.1675 25.899C46.1675 18.0909 33.96 10 26.1526 10" fill="#FA6800"/>
<path d="M19.9979 24.0014V31.4872H14.0619C12.0346 38.665 20.9995 47.135 26.0988 47.135C31.1981 47.135 44.624 38.6169 38.1356 31.4872H32.1996V24.0014L28.2047 28.0144L26.1002 30.1269L23.9956 28.0144L19.9979 24.0014Z" fill="#4C4C4C"/>
</g>
<rect x="242" y="11" width="39" height="26" rx="3" fill="#808080"/>
<path d="M259.383 27.0312H254.617L253.547 30H252L256.344 18.625H257.656L262.008 30H260.469L259.383 27.0312ZM255.07 25.7969H258.938L257 20.4766L255.07 25.7969ZM264.883 30H263.438V18H264.883V30ZM268.773 30H267.328V18H268.773V30Z" fill="black"/>
<path d="M61.6875 26.0166C61.6875 27.012 61.5729 27.8965 61.3438 28.6699C61.1146 29.4362 60.7852 30.0843 60.3555 30.6143C59.9258 31.137 59.3994 31.5345 58.7764 31.8066C58.1533 32.0788 57.4408 32.2148 56.6387 32.2148C55.8438 32.2148 55.1312 32.0788 54.501 31.8066C53.8779 31.5345 53.348 31.137 52.9111 30.6143C52.4743 30.0843 52.1377 29.4362 51.9014 28.6699C51.6722 27.8965 51.5576 27.012 51.5576 26.0166V22.3535C51.5576 21.3581 51.6722 20.4772 51.9014 19.7109C52.1305 18.9375 52.46 18.2858 52.8896 17.7559C53.3265 17.2259 53.8564 16.8249 54.4795 16.5527C55.1097 16.2734 55.8223 16.1338 56.6172 16.1338C57.4193 16.1338 58.1318 16.2734 58.7549 16.5527C59.3851 16.8249 59.915 17.2259 60.3447 17.7559C60.7816 18.2858 61.1146 18.9375 61.3438 19.7109C61.5729 20.4772 61.6875 21.3581 61.6875 22.3535V26.0166ZM53.5557 25.6191L59.6465 20.9463C59.5319 19.9079 59.2275 19.1201 58.7334 18.583C58.2464 18.0387 57.541 17.7666 56.6172 17.7666C55.5716 17.7666 54.7982 18.1211 54.2969 18.8301C53.8027 19.5319 53.5557 20.5596 53.5557 21.9131V25.6191ZM59.6895 22.8477L53.6094 27.499C53.7311 28.5088 54.0426 29.2786 54.5439 29.8086C55.0452 30.3385 55.7435 30.6035 56.6387 30.6035C57.6914 30.6035 58.4613 30.2454 58.9482 29.5293C59.4424 28.8132 59.6895 27.7819 59.6895 26.4355V22.8477ZM68.541 30.7109C68.541 30.4961 68.5732 30.2956 68.6377 30.1094C68.7093 29.9232 68.8096 29.762 68.9385 29.626C69.0674 29.4827 69.2285 29.3717 69.4219 29.293C69.6152 29.2142 69.8408 29.1748 70.0986 29.1748C70.3564 29.1748 70.582 29.2142 70.7754 29.293C70.9759 29.3717 71.1406 29.4827 71.2695 29.626C71.4056 29.762 71.5059 29.9232 71.5703 30.1094C71.6419 30.2956 71.6777 30.4961 71.6777 30.7109C71.6777 30.9186 71.6419 31.1156 71.5703 31.3018C71.5059 31.4808 71.4056 31.6383 71.2695 31.7744C71.1406 31.9105 70.9759 32.0143 70.7754 32.0859C70.582 32.1647 70.3564 32.2041 70.0986 32.2041C69.8408 32.2041 69.6152 32.1647 69.4219 32.0859C69.2285 32.0143 69.0674 31.9105 68.9385 31.7744C68.8096 31.6383 68.7093 31.4808 68.6377 31.3018C68.5732 31.1156 68.541 30.9186 68.541 30.7109ZM87.8877 32H77.6396V30.5713L82.7637 24.8779C83.222 24.3695 83.6051 23.9183 83.9131 23.5244C84.221 23.1305 84.4681 22.7689 84.6543 22.4395C84.8405 22.1029 84.973 21.7878 85.0518 21.4941C85.1305 21.1934 85.1699 20.8854 85.1699 20.5703C85.1699 20.1836 85.1055 19.8219 84.9766 19.4854C84.8548 19.1416 84.6722 18.8444 84.4287 18.5938C84.1924 18.3431 83.9023 18.1462 83.5586 18.0029C83.222 17.8525 82.8389 17.7773 82.4092 17.7773C81.8864 17.7773 81.4316 17.8525 81.0449 18.0029C80.6654 18.1533 80.3467 18.3682 80.0889 18.6475C79.8382 18.9196 79.6484 19.2526 79.5195 19.6465C79.3978 20.0404 79.3369 20.4808 79.3369 20.9678H77.3389C77.3389 20.3089 77.4535 19.6895 77.6826 19.1094C77.9118 18.5221 78.2412 18.0101 78.6709 17.5732C79.1077 17.1364 79.6377 16.7891 80.2607 16.5312C80.891 16.2734 81.6071 16.1445 82.4092 16.1445C83.1468 16.1445 83.8092 16.2555 84.3965 16.4775C84.9909 16.6924 85.4922 16.9932 85.9004 17.3799C86.3086 17.7666 86.6201 18.2249 86.835 18.7549C87.057 19.2848 87.168 19.8613 87.168 20.4844C87.168 20.9499 87.0892 21.4118 86.9316 21.8701C86.7741 22.3213 86.5592 22.7689 86.2871 23.2129C86.0221 23.6569 85.7106 24.0973 85.3525 24.5342C85.0016 24.9639 84.6292 25.3936 84.2354 25.8232L80.0352 30.3779H87.8877V32ZM101.412 17.4766L94.9346 32H92.8506L99.3066 18.0996H90.8418V16.3594H101.412V17.4766ZM112.047 16.3486V18.1318H111.875C111.216 18.1318 110.625 18.1999 110.103 18.3359C109.587 18.472 109.132 18.6582 108.738 18.8945C108.344 19.1309 108.004 19.4137 107.718 19.7432C107.438 20.0654 107.206 20.4199 107.02 20.8066C106.833 21.1934 106.69 21.598 106.59 22.0205C106.49 22.443 106.425 22.8727 106.396 23.3096C106.583 23.0876 106.798 22.8835 107.041 22.6973C107.285 22.5039 107.546 22.3392 107.825 22.2031C108.112 22.0599 108.416 21.9489 108.738 21.8701C109.068 21.7842 109.411 21.7412 109.77 21.7412C110.55 21.7412 111.223 21.8916 111.789 22.1924C112.355 22.486 112.82 22.8763 113.186 23.3633C113.551 23.8503 113.819 24.4017 113.991 25.0176C114.163 25.6335 114.249 26.2601 114.249 26.8975C114.249 27.6279 114.145 28.3154 113.938 28.96C113.737 29.6045 113.433 30.1702 113.024 30.6572C112.616 31.137 112.108 31.5166 111.499 31.7959C110.897 32.0752 110.199 32.2148 109.404 32.2148C108.839 32.2148 108.319 32.1325 107.847 31.9678C107.381 31.8031 106.962 31.5811 106.59 31.3018C106.217 31.0153 105.892 30.6787 105.612 30.292C105.333 29.9053 105.1 29.4899 104.914 29.0459C104.735 28.6019 104.599 28.14 104.506 27.6602C104.413 27.1803 104.366 26.7005 104.366 26.2207V25.2861C104.366 24.57 104.409 23.8538 104.495 23.1377C104.588 22.4144 104.742 21.7233 104.957 21.0645C105.172 20.4056 105.462 19.7897 105.827 19.2168C106.192 18.6367 106.651 18.1354 107.202 17.7129C107.761 17.2904 108.423 16.9574 109.189 16.7139C109.956 16.4704 110.851 16.3486 111.875 16.3486H112.047ZM109.447 23.3955C109.111 23.3955 108.785 23.4492 108.47 23.5566C108.155 23.6641 107.861 23.8145 107.589 24.0078C107.317 24.2012 107.077 24.4339 106.869 24.7061C106.661 24.9782 106.497 25.279 106.375 25.6084V26.2744C106.375 26.9619 106.457 27.5742 106.622 28.1113C106.787 28.6413 107.009 29.0889 107.288 29.4541C107.567 29.8193 107.89 30.0986 108.255 30.292C108.62 30.4782 109.003 30.5713 109.404 30.5713C109.87 30.5713 110.282 30.4818 110.64 30.3027C110.998 30.1237 111.299 29.8766 111.542 29.5615C111.793 29.2464 111.979 28.8704 112.101 28.4336C112.229 27.9896 112.294 27.5098 112.294 26.9941C112.294 26.5358 112.237 26.0918 112.122 25.6621C112.007 25.2253 111.832 24.8385 111.596 24.502C111.359 24.1654 111.062 23.8968 110.704 23.6963C110.346 23.4958 109.927 23.3955 109.447 23.3955ZM127.838 17.4766L121.36 32H119.276L125.732 18.0996H117.268V16.3594H127.838V17.4766Z" fill="white"/>
</svg>
