<svg width="383" height="303" viewBox="0 0 383 303" fill="none" xmlns="http://www.w3.org/2000/svg">
<g filter="url(#filter0_d_6_66)">
<rect x="75" y="55" width="233" height="153" rx="9" fill="#4C4C4C" fill-opacity="0.01"/>
</g>
<g clip-path="url(#clip0_6_66)">
<rect x="62" y="38" width="260" height="170" rx="10" fill="#4C4C4C"/>
<rect x="62" y="38" width="260" height="170" rx="10" fill="url(#paint0_linear_6_66)" fill-opacity="0.2"/>
<mask id="mask0_6_66" style="mask-type:alpha" maskUnits="userSpaceOnUse" x="62" y="38" width="260" height="170">
<rect x="62" y="38" width="260" height="170" rx="10" fill="white"/>
<rect x="62" y="38" width="260" height="170" rx="10" stroke="white"/>
</mask>
<g mask="url(#mask0_6_66)">
</g>
<path d="M85.5918 110.752L87.8184 106.469H89.0957L86.1543 111.818V115H85.0293V111.818L82.0879 106.469H83.377L85.5918 110.752ZM89.3535 111.771C89.3535 111.15 89.4746 110.592 89.7168 110.096C89.9629 109.6 90.3027 109.217 90.7363 108.947C91.1738 108.678 91.6719 108.543 92.2305 108.543C93.0938 108.543 93.791 108.842 94.3223 109.439C94.8574 110.037 95.125 110.832 95.125 111.824V111.9C95.125 112.518 95.0059 113.072 94.7676 113.564C94.5332 114.053 94.1953 114.434 93.7539 114.707C93.3164 114.98 92.8125 115.117 92.2422 115.117C91.3828 115.117 90.6855 114.818 90.1504 114.221C89.6191 113.623 89.3535 112.832 89.3535 111.848V111.771ZM90.4434 111.9C90.4434 112.604 90.6055 113.168 90.9297 113.594C91.2578 114.02 91.6953 114.232 92.2422 114.232C92.793 114.232 93.2305 114.018 93.5547 113.588C93.8789 113.154 94.041 112.549 94.041 111.771C94.041 111.076 93.875 110.514 93.543 110.084C93.2148 109.65 92.7773 109.434 92.2305 109.434C91.6953 109.434 91.2637 109.646 90.9355 110.072C90.6074 110.498 90.4434 111.107 90.4434 111.9ZM100.398 114.373C99.9766 114.869 99.3574 115.117 98.541 115.117C97.8652 115.117 97.3496 114.922 96.9941 114.531C96.6426 114.137 96.4648 113.555 96.4609 112.785V108.66H97.5449V112.756C97.5449 113.717 97.9355 114.197 98.7168 114.197C99.5449 114.197 100.096 113.889 100.369 113.271V108.66H101.453V115H100.422L100.398 114.373ZM106.17 109.633C106.006 109.605 105.828 109.592 105.637 109.592C104.926 109.592 104.443 109.895 104.189 110.5V115H103.105V108.66H104.16L104.178 109.393C104.533 108.826 105.037 108.543 105.689 108.543C105.9 108.543 106.061 108.57 106.17 108.625V109.633ZM115.516 111.9C115.516 112.869 115.293 113.648 114.848 114.238C114.402 114.824 113.805 115.117 113.055 115.117C112.254 115.117 111.635 114.834 111.197 114.268L111.145 115H110.148V106H111.232V109.357C111.67 108.814 112.273 108.543 113.043 108.543C113.812 108.543 114.416 108.834 114.854 109.416C115.295 109.998 115.516 110.795 115.516 111.807V111.9ZM114.432 111.777C114.432 111.039 114.289 110.469 114.004 110.066C113.719 109.664 113.309 109.463 112.773 109.463C112.059 109.463 111.545 109.795 111.232 110.459V113.201C111.564 113.865 112.082 114.197 112.785 114.197C113.305 114.197 113.709 113.996 113.998 113.594C114.287 113.191 114.432 112.586 114.432 111.777ZM120.801 115C120.738 114.875 120.688 114.652 120.648 114.332C120.145 114.855 119.543 115.117 118.844 115.117C118.219 115.117 117.705 114.941 117.303 114.59C116.904 114.234 116.705 113.785 116.705 113.242C116.705 112.582 116.955 112.07 117.455 111.707C117.959 111.34 118.666 111.156 119.576 111.156H120.631V110.658C120.631 110.279 120.518 109.979 120.291 109.756C120.064 109.529 119.73 109.416 119.289 109.416C118.902 109.416 118.578 109.514 118.316 109.709C118.055 109.904 117.924 110.141 117.924 110.418H116.834C116.834 110.102 116.945 109.797 117.168 109.504C117.395 109.207 117.699 108.973 118.082 108.801C118.469 108.629 118.893 108.543 119.354 108.543C120.084 108.543 120.656 108.727 121.07 109.094C121.484 109.457 121.699 109.959 121.715 110.6V113.518C121.715 114.1 121.789 114.562 121.938 114.906V115H120.801ZM119.002 114.174C119.342 114.174 119.664 114.086 119.969 113.91C120.273 113.734 120.494 113.506 120.631 113.225V111.924H119.781C118.453 111.924 117.789 112.312 117.789 113.09C117.789 113.43 117.902 113.695 118.129 113.887C118.355 114.078 118.646 114.174 119.002 114.174ZM124.592 115H123.508V106H124.592V115ZM130.246 115C130.184 114.875 130.133 114.652 130.094 114.332C129.59 114.855 128.988 115.117 128.289 115.117C127.664 115.117 127.15 114.941 126.748 114.59C126.35 114.234 126.15 113.785 126.15 113.242C126.15 112.582 126.4 112.07 126.9 111.707C127.404 111.34 128.111 111.156 129.021 111.156H130.076V110.658C130.076 110.279 129.963 109.979 129.736 109.756C129.51 109.529 129.176 109.416 128.734 109.416C128.348 109.416 128.023 109.514 127.762 109.709C127.5 109.904 127.369 110.141 127.369 110.418H126.279C126.279 110.102 126.391 109.797 126.613 109.504C126.84 109.207 127.145 108.973 127.527 108.801C127.914 108.629 128.338 108.543 128.799 108.543C129.529 108.543 130.102 108.727 130.516 109.094C130.93 109.457 131.145 109.959 131.16 110.6V113.518C131.16 114.1 131.234 114.562 131.383 114.906V115H130.246ZM128.447 114.174C128.787 114.174 129.109 114.086 129.414 113.91C129.719 113.734 129.939 113.506 130.076 113.225V111.924H129.227C127.898 111.924 127.234 112.312 127.234 113.09C127.234 113.43 127.348 113.695 127.574 113.887C127.801 114.078 128.092 114.174 128.447 114.174ZM133.885 108.66L133.92 109.457C134.404 108.848 135.037 108.543 135.818 108.543C137.158 108.543 137.834 109.299 137.846 110.811V115H136.762V110.805C136.758 110.348 136.652 110.01 136.445 109.791C136.242 109.572 135.924 109.463 135.49 109.463C135.139 109.463 134.83 109.557 134.564 109.744C134.299 109.932 134.092 110.178 133.943 110.482V115H132.859V108.66H133.885ZM142.023 114.232C142.41 114.232 142.748 114.115 143.037 113.881C143.326 113.646 143.486 113.354 143.518 113.002H144.543C144.523 113.365 144.398 113.711 144.168 114.039C143.938 114.367 143.629 114.629 143.242 114.824C142.859 115.02 142.453 115.117 142.023 115.117C141.16 115.117 140.473 114.83 139.961 114.256C139.453 113.678 139.199 112.889 139.199 111.889V111.707C139.199 111.09 139.312 110.541 139.539 110.061C139.766 109.58 140.09 109.207 140.512 108.941C140.938 108.676 141.439 108.543 142.018 108.543C142.729 108.543 143.318 108.756 143.787 109.182C144.26 109.607 144.512 110.16 144.543 110.84H143.518C143.486 110.43 143.33 110.094 143.049 109.832C142.771 109.566 142.428 109.434 142.018 109.434C141.467 109.434 141.039 109.633 140.734 110.031C140.434 110.426 140.283 110.998 140.283 111.748V111.953C140.283 112.684 140.434 113.246 140.734 113.641C141.035 114.035 141.465 114.232 142.023 114.232ZM148.393 115.117C147.533 115.117 146.834 114.836 146.295 114.273C145.756 113.707 145.486 112.951 145.486 112.006V111.807C145.486 111.178 145.605 110.617 145.844 110.125C146.086 109.629 146.422 109.242 146.852 108.965C147.285 108.684 147.754 108.543 148.258 108.543C149.082 108.543 149.723 108.814 150.18 109.357C150.637 109.9 150.865 110.678 150.865 111.689V112.141H146.57C146.586 112.766 146.768 113.271 147.115 113.658C147.467 114.041 147.912 114.232 148.451 114.232C148.834 114.232 149.158 114.154 149.424 113.998C149.689 113.842 149.922 113.635 150.121 113.377L150.783 113.893C150.252 114.709 149.455 115.117 148.393 115.117ZM148.258 109.434C147.82 109.434 147.453 109.594 147.156 109.914C146.859 110.23 146.676 110.676 146.605 111.25H149.781V111.168C149.75 110.617 149.602 110.191 149.336 109.891C149.07 109.586 148.711 109.434 148.258 109.434Z" fill="white"/>
<path d="M88.9961 156.469V162.27C88.9922 163.074 88.7383 163.732 88.2344 164.244C87.7344 164.756 87.0547 165.043 86.1953 165.105L85.8965 165.117C84.9629 165.117 84.2188 164.865 83.6641 164.361C83.1094 163.857 82.8281 163.164 82.8203 162.281V156.469H83.9336V162.246C83.9336 162.863 84.1035 163.344 84.4434 163.688C84.7832 164.027 85.2676 164.197 85.8965 164.197C86.5332 164.197 87.0195 164.027 87.3555 163.688C87.6953 163.348 87.8652 162.869 87.8652 162.252V156.469H88.9961ZM91.627 158.66L91.6621 159.457C92.1465 158.848 92.7793 158.543 93.5605 158.543C94.9004 158.543 95.5762 159.299 95.5879 160.811V165H94.5039V160.805C94.5 160.348 94.3945 160.01 94.1875 159.791C93.9844 159.572 93.666 159.463 93.2324 159.463C92.8809 159.463 92.5723 159.557 92.3066 159.744C92.041 159.932 91.834 160.178 91.6855 160.482V165H90.6016V158.66H91.627ZM98.4004 165H97.3164V156H98.4004V165ZM99.8535 161.771C99.8535 161.15 99.9746 160.592 100.217 160.096C100.463 159.6 100.803 159.217 101.236 158.947C101.674 158.678 102.172 158.543 102.73 158.543C103.594 158.543 104.291 158.842 104.822 159.439C105.357 160.037 105.625 160.832 105.625 161.824V161.9C105.625 162.518 105.506 163.072 105.268 163.564C105.033 164.053 104.695 164.434 104.254 164.707C103.816 164.98 103.312 165.117 102.742 165.117C101.883 165.117 101.186 164.818 100.65 164.221C100.119 163.623 99.8535 162.832 99.8535 161.848V161.771ZM100.943 161.9C100.943 162.604 101.105 163.168 101.43 163.594C101.758 164.02 102.195 164.232 102.742 164.232C103.293 164.232 103.73 164.018 104.055 163.588C104.379 163.154 104.541 162.549 104.541 161.771C104.541 161.076 104.375 160.514 104.043 160.084C103.715 159.65 103.277 159.434 102.73 159.434C102.195 159.434 101.764 159.646 101.436 160.072C101.107 160.498 100.943 161.107 100.943 161.9ZM109.527 164.232C109.914 164.232 110.252 164.115 110.541 163.881C110.83 163.646 110.99 163.354 111.021 163.002H112.047C112.027 163.365 111.902 163.711 111.672 164.039C111.441 164.367 111.133 164.629 110.746 164.824C110.363 165.02 109.957 165.117 109.527 165.117C108.664 165.117 107.977 164.83 107.465 164.256C106.957 163.678 106.703 162.889 106.703 161.889V161.707C106.703 161.09 106.816 160.541 107.043 160.061C107.27 159.58 107.594 159.207 108.016 158.941C108.441 158.676 108.943 158.543 109.521 158.543C110.232 158.543 110.822 158.756 111.291 159.182C111.764 159.607 112.016 160.16 112.047 160.84H111.021C110.99 160.43 110.834 160.094 110.553 159.832C110.275 159.566 109.932 159.434 109.521 159.434C108.971 159.434 108.543 159.633 108.238 160.031C107.938 160.426 107.787 160.998 107.787 161.748V161.953C107.787 162.684 107.938 163.246 108.238 163.641C108.539 164.035 108.969 164.232 109.527 164.232ZM115.035 162.064L114.355 162.773V165H113.271V156H114.355V161.443L114.936 160.746L116.91 158.66H118.229L115.762 161.309L118.516 165H117.244L115.035 162.064ZM121.861 165.117C121.002 165.117 120.303 164.836 119.764 164.273C119.225 163.707 118.955 162.951 118.955 162.006V161.807C118.955 161.178 119.074 160.617 119.312 160.125C119.555 159.629 119.891 159.242 120.32 158.965C120.754 158.684 121.223 158.543 121.727 158.543C122.551 158.543 123.191 158.814 123.648 159.357C124.105 159.9 124.334 160.678 124.334 161.689V162.141H120.039C120.055 162.766 120.236 163.271 120.584 163.658C120.936 164.041 121.381 164.232 121.92 164.232C122.303 164.232 122.627 164.154 122.893 163.998C123.158 163.842 123.391 163.635 123.59 163.377L124.252 163.893C123.721 164.709 122.924 165.117 121.861 165.117ZM121.727 159.434C121.289 159.434 120.922 159.594 120.625 159.914C120.328 160.23 120.145 160.676 120.074 161.25H123.25V161.168C123.219 160.617 123.07 160.191 122.805 159.891C122.539 159.586 122.18 159.434 121.727 159.434ZM125.33 161.777C125.33 160.805 125.561 160.023 126.021 159.434C126.482 158.84 127.086 158.543 127.832 158.543C128.574 158.543 129.162 158.797 129.596 159.305V156H130.68V165H129.684L129.631 164.32C129.197 164.852 128.594 165.117 127.82 165.117C127.086 165.117 126.486 164.816 126.021 164.215C125.561 163.613 125.33 162.828 125.33 161.859V161.777ZM126.414 161.9C126.414 162.619 126.562 163.182 126.859 163.588C127.156 163.994 127.566 164.197 128.09 164.197C128.777 164.197 129.279 163.889 129.596 163.271V160.359C129.271 159.762 128.773 159.463 128.102 159.463C127.57 159.463 127.156 159.668 126.859 160.078C126.562 160.488 126.414 161.096 126.414 161.9ZM140.711 161.9C140.711 162.869 140.488 163.648 140.043 164.238C139.598 164.824 139 165.117 138.25 165.117C137.449 165.117 136.83 164.834 136.393 164.268L136.34 165H135.344V156H136.428V159.357C136.865 158.814 137.469 158.543 138.238 158.543C139.008 158.543 139.611 158.834 140.049 159.416C140.49 159.998 140.711 160.795 140.711 161.807V161.9ZM139.627 161.777C139.627 161.039 139.484 160.469 139.199 160.066C138.914 159.664 138.504 159.463 137.969 159.463C137.254 159.463 136.74 159.795 136.428 160.459V163.201C136.76 163.865 137.277 164.197 137.98 164.197C138.5 164.197 138.904 163.996 139.193 163.594C139.482 163.191 139.627 162.586 139.627 161.777ZM145.996 165C145.934 164.875 145.883 164.652 145.844 164.332C145.34 164.855 144.738 165.117 144.039 165.117C143.414 165.117 142.9 164.941 142.498 164.59C142.1 164.234 141.9 163.785 141.9 163.242C141.9 162.582 142.15 162.07 142.65 161.707C143.154 161.34 143.861 161.156 144.771 161.156H145.826V160.658C145.826 160.279 145.713 159.979 145.486 159.756C145.26 159.529 144.926 159.416 144.484 159.416C144.098 159.416 143.773 159.514 143.512 159.709C143.25 159.904 143.119 160.141 143.119 160.418H142.029C142.029 160.102 142.141 159.797 142.363 159.504C142.59 159.207 142.895 158.973 143.277 158.801C143.664 158.629 144.088 158.543 144.549 158.543C145.279 158.543 145.852 158.727 146.266 159.094C146.68 159.457 146.895 159.959 146.91 160.6V163.518C146.91 164.1 146.984 164.562 147.133 164.906V165H145.996ZM144.197 164.174C144.537 164.174 144.859 164.086 145.164 163.91C145.469 163.734 145.689 163.506 145.826 163.225V161.924H144.977C143.648 161.924 142.984 162.312 142.984 163.09C142.984 163.43 143.098 163.695 143.324 163.887C143.551 164.078 143.842 164.174 144.197 164.174ZM149.787 165H148.703V156H149.787V165ZM155.441 165C155.379 164.875 155.328 164.652 155.289 164.332C154.785 164.855 154.184 165.117 153.484 165.117C152.859 165.117 152.346 164.941 151.943 164.59C151.545 164.234 151.346 163.785 151.346 163.242C151.346 162.582 151.596 162.07 152.096 161.707C152.6 161.34 153.307 161.156 154.217 161.156H155.271V160.658C155.271 160.279 155.158 159.979 154.932 159.756C154.705 159.529 154.371 159.416 153.93 159.416C153.543 159.416 153.219 159.514 152.957 159.709C152.695 159.904 152.564 160.141 152.564 160.418H151.475C151.475 160.102 151.586 159.797 151.809 159.504C152.035 159.207 152.34 158.973 152.723 158.801C153.109 158.629 153.533 158.543 153.994 158.543C154.725 158.543 155.297 158.727 155.711 159.094C156.125 159.457 156.34 159.959 156.355 160.6V163.518C156.355 164.1 156.43 164.562 156.578 164.906V165H155.441ZM153.643 164.174C153.982 164.174 154.305 164.086 154.609 163.91C154.914 163.734 155.135 163.506 155.271 163.225V161.924H154.422C153.094 161.924 152.43 162.312 152.43 163.09C152.43 163.43 152.543 163.695 152.77 163.887C152.996 164.078 153.287 164.174 153.643 164.174ZM159.08 158.66L159.115 159.457C159.6 158.848 160.232 158.543 161.014 158.543C162.354 158.543 163.029 159.299 163.041 160.811V165H161.957V160.805C161.953 160.348 161.848 160.01 161.641 159.791C161.438 159.572 161.119 159.463 160.686 159.463C160.334 159.463 160.025 159.557 159.76 159.744C159.494 159.932 159.287 160.178 159.139 160.482V165H158.055V158.66H159.08ZM167.219 164.232C167.605 164.232 167.943 164.115 168.232 163.881C168.521 163.646 168.682 163.354 168.713 163.002H169.738C169.719 163.365 169.594 163.711 169.363 164.039C169.133 164.367 168.824 164.629 168.438 164.824C168.055 165.02 167.648 165.117 167.219 165.117C166.355 165.117 165.668 164.83 165.156 164.256C164.648 163.678 164.395 162.889 164.395 161.889V161.707C164.395 161.09 164.508 160.541 164.734 160.061C164.961 159.58 165.285 159.207 165.707 158.941C166.133 158.676 166.635 158.543 167.213 158.543C167.924 158.543 168.514 158.756 168.982 159.182C169.455 159.607 169.707 160.16 169.738 160.84H168.713C168.682 160.43 168.525 160.094 168.244 159.832C167.967 159.566 167.623 159.434 167.213 159.434C166.662 159.434 166.234 159.633 165.93 160.031C165.629 160.426 165.479 160.998 165.479 161.748V161.953C165.479 162.684 165.629 163.246 165.93 163.641C166.23 164.035 166.66 164.232 167.219 164.232ZM173.588 165.117C172.729 165.117 172.029 164.836 171.49 164.273C170.951 163.707 170.682 162.951 170.682 162.006V161.807C170.682 161.178 170.801 160.617 171.039 160.125C171.281 159.629 171.617 159.242 172.047 158.965C172.48 158.684 172.949 158.543 173.453 158.543C174.277 158.543 174.918 158.814 175.375 159.357C175.832 159.9 176.061 160.678 176.061 161.689V162.141H171.766C171.781 162.766 171.963 163.271 172.311 163.658C172.662 164.041 173.107 164.232 173.646 164.232C174.029 164.232 174.354 164.154 174.619 163.998C174.885 163.842 175.117 163.635 175.316 163.377L175.979 163.893C175.447 164.709 174.65 165.117 173.588 165.117ZM173.453 159.434C173.016 159.434 172.648 159.594 172.352 159.914C172.055 160.23 171.871 160.676 171.801 161.25H174.977V161.168C174.945 160.617 174.797 160.191 174.531 159.891C174.266 159.586 173.906 159.434 173.453 159.434Z" fill="white"/>
<path d="M85.7305 137.053C86.7266 137.046 87.5632 136.893 88.2402 136.594C88.9238 136.288 89.4772 135.878 89.9004 135.363C90.3301 134.849 90.6426 134.25 90.8379 133.566C91.0332 132.883 91.1406 132.154 91.1602 131.379C90.9909 131.665 90.7858 131.929 90.5449 132.17C90.3105 132.404 90.0436 132.609 89.7441 132.785C89.4447 132.961 89.1159 133.098 88.7578 133.195C88.3997 133.293 88.0124 133.342 87.5957 133.342C86.9186 133.342 86.3262 133.205 85.8184 132.932C85.3105 132.652 84.8841 132.287 84.5391 131.838C84.2005 131.389 83.9434 130.881 83.7676 130.314C83.5983 129.742 83.5137 129.162 83.5137 128.576C83.5137 127.938 83.6048 127.323 83.7871 126.73C83.9759 126.132 84.2493 125.601 84.6074 125.139C84.972 124.67 85.4212 124.296 85.9551 124.016C86.4889 123.736 87.1074 123.592 87.8105 123.586C88.6309 123.586 89.3242 123.749 89.8906 124.074C90.4635 124.393 90.929 124.82 91.2871 125.354C91.6517 125.887 91.9154 126.496 92.0781 127.18C92.2474 127.857 92.332 128.55 92.332 129.26V130.393C92.332 131.044 92.2865 131.685 92.1953 132.316C92.1107 132.948 91.9674 133.55 91.7656 134.123C91.5638 134.689 91.2969 135.217 90.9648 135.705C90.6393 136.187 90.2324 136.607 89.7441 136.965C89.2559 137.316 88.6797 137.593 88.0156 137.795C87.3516 137.997 86.5898 138.101 85.7305 138.107H85.4668L85.4766 137.053H85.7305ZM87.7422 132.336C88.1328 132.336 88.5072 132.274 88.8652 132.15C89.2298 132.02 89.5618 131.841 89.8613 131.613C90.1673 131.379 90.431 131.105 90.6523 130.793C90.8802 130.474 91.0527 130.126 91.1699 129.748V129.152C91.1699 128.521 91.0983 127.928 90.9551 127.375C90.8118 126.822 90.6003 126.34 90.3203 125.93C90.0404 125.513 89.6921 125.188 89.2754 124.953C88.8587 124.712 88.377 124.592 87.8301 124.592C87.3223 124.592 86.873 124.706 86.4824 124.934C86.0918 125.155 85.7598 125.448 85.4863 125.812C85.2194 126.177 85.0143 126.597 84.8711 127.072C84.7344 127.541 84.666 128.026 84.666 128.527C84.666 128.996 84.7311 129.458 84.8613 129.914C84.9915 130.37 85.1868 130.777 85.4473 131.135C85.7077 131.493 86.0299 131.783 86.4141 132.004C86.7982 132.225 87.2409 132.336 87.7422 132.336ZM99.3047 137.17C99.3047 136.896 99.3926 136.665 99.5684 136.477C99.7507 136.281 99.9948 136.184 100.301 136.184C100.613 136.184 100.857 136.281 101.033 136.477C101.215 136.665 101.307 136.896 101.307 137.17C101.307 137.443 101.215 137.671 101.033 137.854C100.857 138.029 100.613 138.117 100.301 138.117C99.9948 138.117 99.7507 138.029 99.5684 137.854C99.3926 137.671 99.3047 137.443 99.3047 137.17ZM109.949 130.256H111.131C111.587 130.249 112.016 130.184 112.42 130.061C112.824 129.937 113.175 129.758 113.475 129.523C113.781 129.289 114.021 129.003 114.197 128.664C114.373 128.326 114.461 127.935 114.461 127.492C114.461 127.03 114.389 126.62 114.246 126.262C114.103 125.897 113.901 125.591 113.641 125.344C113.38 125.096 113.064 124.908 112.693 124.777C112.329 124.647 111.922 124.582 111.473 124.582C111.023 124.582 110.61 124.654 110.232 124.797C109.855 124.934 109.526 125.129 109.246 125.383C108.973 125.637 108.755 125.946 108.592 126.311C108.436 126.669 108.354 127.069 108.348 127.512H107.176C107.189 126.952 107.303 126.434 107.518 125.959C107.739 125.477 108.038 125.061 108.416 124.709C108.794 124.357 109.243 124.084 109.764 123.889C110.285 123.687 110.854 123.586 111.473 123.586C112.078 123.586 112.635 123.677 113.143 123.859C113.65 124.035 114.087 124.292 114.451 124.631C114.822 124.963 115.109 125.373 115.311 125.861C115.519 126.35 115.623 126.906 115.623 127.531C115.623 127.883 115.564 128.221 115.447 128.547C115.337 128.866 115.174 129.165 114.959 129.445C114.744 129.719 114.484 129.966 114.178 130.188C113.872 130.402 113.53 130.578 113.152 130.715C114.038 130.962 114.715 131.389 115.184 131.994C115.652 132.593 115.887 133.309 115.887 134.143C115.887 134.781 115.773 135.35 115.545 135.852C115.324 136.353 115.014 136.776 114.617 137.121C114.227 137.466 113.764 137.733 113.23 137.922C112.703 138.104 112.133 138.195 111.521 138.195C110.896 138.195 110.311 138.104 109.764 137.922C109.217 137.733 108.738 137.466 108.328 137.121C107.918 136.77 107.592 136.343 107.352 135.842C107.111 135.34 106.984 134.774 106.971 134.143H108.133C108.146 134.611 108.24 135.035 108.416 135.412C108.592 135.79 108.829 136.112 109.129 136.379C109.435 136.646 109.79 136.851 110.193 136.994C110.604 137.137 111.046 137.209 111.521 137.209C111.984 137.209 112.41 137.144 112.801 137.014C113.198 136.883 113.536 136.691 113.816 136.438C114.103 136.184 114.324 135.868 114.48 135.49C114.643 135.113 114.725 134.676 114.725 134.182C114.725 133.661 114.627 133.218 114.432 132.854C114.243 132.482 113.986 132.18 113.66 131.945C113.335 131.711 112.954 131.538 112.518 131.428C112.081 131.317 111.619 131.258 111.131 131.252H109.949V130.256ZM128.602 124.455L122.527 138H121.307L127.342 124.826H119.256V123.781H128.602V124.455ZM140.613 124.455L134.539 138H133.318L139.354 124.826H131.268V123.781H140.613V124.455ZM149.305 138H148.133V125.256L144.197 126.945V125.842L149.139 123.781H149.305V138ZM162.498 123.674V124.738H162.322C161.372 124.745 160.555 124.904 159.871 125.217C159.188 125.529 158.621 125.949 158.172 126.477C157.723 126.997 157.381 127.603 157.146 128.293C156.912 128.983 156.772 129.702 156.727 130.451C156.909 130.191 157.127 129.95 157.381 129.729C157.635 129.507 157.911 129.318 158.211 129.162C158.517 129.006 158.842 128.885 159.188 128.801C159.533 128.71 159.887 128.664 160.252 128.664C160.936 128.664 161.531 128.798 162.039 129.064C162.553 129.325 162.98 129.673 163.318 130.109C163.663 130.539 163.921 131.037 164.09 131.604C164.259 132.163 164.344 132.743 164.344 133.342C164.344 133.967 164.253 134.572 164.07 135.158C163.895 135.738 163.628 136.252 163.27 136.701C162.918 137.15 162.479 137.512 161.951 137.785C161.43 138.059 160.825 138.195 160.135 138.195C159.393 138.195 158.735 138.049 158.162 137.756C157.596 137.456 157.117 137.066 156.727 136.584C156.336 136.096 156.04 135.539 155.838 134.914C155.636 134.289 155.532 133.645 155.525 132.98V131.721C155.525 131.044 155.577 130.376 155.682 129.719C155.786 129.055 155.949 128.426 156.17 127.834C156.391 127.242 156.678 126.691 157.029 126.184C157.381 125.676 157.807 125.24 158.309 124.875C158.81 124.504 159.393 124.214 160.057 124.006C160.721 123.791 161.476 123.68 162.322 123.674H162.498ZM160.066 129.67C159.695 129.67 159.331 129.729 158.973 129.846C158.621 129.963 158.296 130.126 157.996 130.334C157.697 130.542 157.433 130.796 157.205 131.096C156.984 131.389 156.818 131.714 156.707 132.072V133C156.707 133.612 156.792 134.178 156.961 134.699C157.13 135.214 157.365 135.656 157.664 136.027C157.97 136.398 158.331 136.688 158.748 136.896C159.171 137.105 159.633 137.206 160.135 137.199C160.63 137.199 161.066 137.092 161.443 136.877C161.827 136.662 162.146 136.379 162.4 136.027C162.661 135.669 162.856 135.262 162.986 134.807C163.123 134.344 163.191 133.869 163.191 133.381C163.191 132.893 163.123 132.427 162.986 131.984C162.856 131.535 162.658 131.141 162.391 130.803C162.13 130.458 161.805 130.184 161.414 129.982C161.03 129.774 160.581 129.67 160.066 129.67ZM176.58 132.375C176.58 133.169 176.492 133.921 176.316 134.631C176.141 135.334 175.87 135.949 175.506 136.477C175.141 137.004 174.679 137.424 174.119 137.736C173.559 138.042 172.892 138.195 172.117 138.195C171.349 138.195 170.682 138.042 170.115 137.736C169.555 137.424 169.09 137.004 168.719 136.477C168.354 135.949 168.081 135.334 167.898 134.631C167.723 133.921 167.632 133.169 167.625 132.375V129.416C167.632 128.622 167.723 127.873 167.898 127.17C168.074 126.46 168.344 125.839 168.709 125.305C169.08 124.771 169.546 124.351 170.105 124.045C170.665 123.732 171.329 123.576 172.098 123.576C172.872 123.576 173.54 123.732 174.1 124.045C174.666 124.351 175.132 124.771 175.496 125.305C175.861 125.832 176.131 126.451 176.307 127.16C176.489 127.87 176.58 128.622 176.58 129.416V132.375ZM168.797 132.551C168.797 132.818 168.807 133.072 168.826 133.312L175.242 127.502C175.151 127.085 175.024 126.698 174.861 126.34C174.699 125.982 174.487 125.673 174.227 125.412C173.973 125.152 173.67 124.947 173.318 124.797C172.967 124.647 172.56 124.572 172.098 124.572C171.492 124.572 170.978 124.699 170.555 124.953C170.138 125.207 169.799 125.549 169.539 125.979C169.279 126.408 169.09 126.903 168.973 127.463C168.855 128.023 168.797 128.609 168.797 129.221V132.551ZM175.408 129.221C175.408 129.006 175.398 128.794 175.379 128.586L168.992 134.387C169.09 134.79 169.223 135.165 169.393 135.51C169.562 135.855 169.773 136.154 170.027 136.408C170.281 136.656 170.581 136.851 170.926 136.994C171.271 137.137 171.668 137.209 172.117 137.209C172.723 137.209 173.234 137.082 173.65 136.828C174.074 136.568 174.412 136.223 174.666 135.793C174.926 135.363 175.115 134.868 175.232 134.309C175.35 133.749 175.408 133.163 175.408 132.551V129.221ZM185.34 138H184.168V125.256L180.232 126.945V125.842L185.174 123.781H185.34V138ZM200.516 127.443C200.516 127.827 200.454 128.189 200.33 128.527C200.213 128.866 200.05 129.175 199.842 129.455C199.633 129.729 199.383 129.973 199.09 130.188C198.803 130.396 198.488 130.568 198.143 130.705C198.533 130.842 198.895 131.021 199.227 131.242C199.565 131.464 199.855 131.724 200.096 132.023C200.343 132.323 200.535 132.658 200.672 133.029C200.809 133.4 200.877 133.801 200.877 134.23C200.877 134.875 200.757 135.445 200.516 135.939C200.275 136.434 199.946 136.848 199.529 137.18C199.119 137.512 198.641 137.766 198.094 137.941C197.547 138.111 196.971 138.195 196.365 138.195C195.753 138.195 195.171 138.111 194.617 137.941C194.07 137.772 193.589 137.521 193.172 137.189C192.762 136.851 192.436 136.434 192.195 135.939C191.954 135.445 191.834 134.875 191.834 134.23C191.834 133.801 191.899 133.4 192.029 133.029C192.166 132.658 192.355 132.326 192.596 132.033C192.837 131.734 193.12 131.473 193.445 131.252C193.777 131.024 194.139 130.842 194.529 130.705C194.184 130.568 193.868 130.396 193.582 130.188C193.302 129.973 193.058 129.729 192.85 129.455C192.641 129.175 192.479 128.866 192.361 128.527C192.251 128.189 192.195 127.827 192.195 127.443C192.195 126.838 192.299 126.298 192.508 125.822C192.723 125.347 193.016 124.943 193.387 124.611C193.758 124.279 194.194 124.025 194.695 123.85C195.197 123.674 195.74 123.586 196.326 123.586C196.906 123.586 197.449 123.674 197.957 123.85C198.471 124.025 198.917 124.279 199.295 124.611C199.673 124.943 199.969 125.347 200.184 125.822C200.405 126.298 200.516 126.838 200.516 127.443ZM199.705 134.24C199.705 133.771 199.614 133.348 199.432 132.971C199.249 132.593 199.002 132.274 198.689 132.014C198.383 131.753 198.025 131.555 197.615 131.418C197.212 131.275 196.788 131.203 196.346 131.203C195.896 131.203 195.467 131.275 195.057 131.418C194.653 131.555 194.298 131.753 193.992 132.014C193.693 132.274 193.452 132.593 193.27 132.971C193.094 133.348 193.006 133.771 193.006 134.24C193.006 134.722 193.094 135.148 193.27 135.52C193.452 135.891 193.693 136.203 193.992 136.457C194.298 136.704 194.653 136.893 195.057 137.023C195.467 137.147 195.903 137.209 196.365 137.209C196.814 137.209 197.241 137.144 197.645 137.014C198.048 136.883 198.403 136.695 198.709 136.447C199.015 136.193 199.256 135.884 199.432 135.52C199.614 135.148 199.705 134.722 199.705 134.24ZM199.344 127.434C199.344 127.01 199.262 126.623 199.1 126.271C198.937 125.92 198.715 125.62 198.436 125.373C198.162 125.119 197.843 124.924 197.479 124.787C197.114 124.65 196.73 124.582 196.326 124.582C195.916 124.582 195.532 124.65 195.174 124.787C194.816 124.917 194.5 125.106 194.227 125.354C193.96 125.594 193.748 125.894 193.592 126.252C193.442 126.604 193.367 126.997 193.367 127.434C193.367 127.87 193.445 128.26 193.602 128.605C193.764 128.944 193.979 129.234 194.246 129.475C194.52 129.709 194.835 129.891 195.193 130.021C195.558 130.145 195.942 130.207 196.346 130.207C196.749 130.207 197.13 130.145 197.488 130.021C197.853 129.891 198.172 129.709 198.445 129.475C198.719 129.234 198.937 128.941 199.1 128.596C199.262 128.251 199.344 127.863 199.344 127.434ZM209.363 138H208.191V125.256L204.256 126.945V125.842L209.197 123.781H209.363V138Z" fill="white"/>
<path d="M92.498 182.375C92.498 183.169 92.4102 183.921 92.2344 184.631C92.0586 185.334 91.7884 185.949 91.4238 186.477C91.0592 187.004 90.597 187.424 90.0371 187.736C89.4772 188.042 88.8099 188.195 88.0352 188.195C87.2669 188.195 86.5996 188.042 86.0332 187.736C85.4733 187.424 85.0078 187.004 84.6367 186.477C84.2721 185.949 83.9987 185.334 83.8164 184.631C83.6406 183.921 83.5495 183.169 83.543 182.375V179.416C83.5495 178.622 83.6406 177.873 83.8164 177.17C83.9922 176.46 84.2624 175.839 84.627 175.305C84.998 174.771 85.4635 174.351 86.0234 174.045C86.5833 173.732 87.2474 173.576 88.0156 173.576C88.7904 173.576 89.4577 173.732 90.0176 174.045C90.584 174.351 91.0495 174.771 91.4141 175.305C91.7786 175.832 92.0488 176.451 92.2246 177.16C92.4069 177.87 92.498 178.622 92.498 179.416V182.375ZM84.7148 182.551C84.7148 182.818 84.7246 183.072 84.7441 183.312L91.1602 177.502C91.069 177.085 90.9421 176.698 90.7793 176.34C90.6165 175.982 90.4049 175.673 90.1445 175.412C89.8906 175.152 89.5879 174.947 89.2363 174.797C88.8848 174.647 88.4779 174.572 88.0156 174.572C87.4102 174.572 86.8958 174.699 86.4727 174.953C86.056 175.207 85.7174 175.549 85.457 175.979C85.1966 176.408 85.0078 176.903 84.8906 177.463C84.7734 178.023 84.7148 178.609 84.7148 179.221V182.551ZM91.3262 179.221C91.3262 179.006 91.3164 178.794 91.2969 178.586L84.9102 184.387C85.0078 184.79 85.1413 185.165 85.3105 185.51C85.4798 185.855 85.6914 186.154 85.9453 186.408C86.1992 186.656 86.4987 186.851 86.8438 186.994C87.1888 187.137 87.5859 187.209 88.0352 187.209C88.6406 187.209 89.1517 187.082 89.5684 186.828C89.9915 186.568 90.3301 186.223 90.584 185.793C90.8444 185.363 91.0332 184.868 91.1504 184.309C91.2676 183.749 91.3262 183.163 91.3262 182.551V179.221ZM99.3047 187.17C99.3047 186.896 99.3926 186.665 99.5684 186.477C99.7507 186.281 99.9948 186.184 100.301 186.184C100.613 186.184 100.857 186.281 101.033 186.477C101.215 186.665 101.307 186.896 101.307 187.17C101.307 187.443 101.215 187.671 101.033 187.854C100.857 188.029 100.613 188.117 100.301 188.117C99.9948 188.117 99.7507 188.029 99.5684 187.854C99.3926 187.671 99.3047 187.443 99.3047 187.17ZM113.27 188H112.098V175.256L108.162 176.945V175.842L113.104 173.781H113.27V188ZM128.602 174.455L122.527 188H121.307L127.342 174.826H119.256V173.781H128.602V174.455ZM138.475 173.674V174.738H138.299C137.348 174.745 136.531 174.904 135.848 175.217C135.164 175.529 134.598 175.949 134.148 176.477C133.699 176.997 133.357 177.603 133.123 178.293C132.889 178.983 132.749 179.702 132.703 180.451C132.885 180.191 133.104 179.95 133.357 179.729C133.611 179.507 133.888 179.318 134.188 179.162C134.493 179.006 134.819 178.885 135.164 178.801C135.509 178.71 135.864 178.664 136.229 178.664C136.912 178.664 137.508 178.798 138.016 179.064C138.53 179.325 138.956 179.673 139.295 180.109C139.64 180.539 139.897 181.037 140.066 181.604C140.236 182.163 140.32 182.743 140.32 183.342C140.32 183.967 140.229 184.572 140.047 185.158C139.871 185.738 139.604 186.252 139.246 186.701C138.895 187.15 138.455 187.512 137.928 187.785C137.407 188.059 136.801 188.195 136.111 188.195C135.369 188.195 134.712 188.049 134.139 187.756C133.572 187.456 133.094 187.066 132.703 186.584C132.312 186.096 132.016 185.539 131.814 184.914C131.613 184.289 131.508 183.645 131.502 182.98V181.721C131.502 181.044 131.554 180.376 131.658 179.719C131.762 179.055 131.925 178.426 132.146 177.834C132.368 177.242 132.654 176.691 133.006 176.184C133.357 175.676 133.784 175.24 134.285 174.875C134.786 174.504 135.369 174.214 136.033 174.006C136.697 173.791 137.452 173.68 138.299 173.674H138.475ZM136.043 179.67C135.672 179.67 135.307 179.729 134.949 179.846C134.598 179.963 134.272 180.126 133.973 180.334C133.673 180.542 133.41 180.796 133.182 181.096C132.96 181.389 132.794 181.714 132.684 182.072V183C132.684 183.612 132.768 184.178 132.938 184.699C133.107 185.214 133.341 185.656 133.641 186.027C133.947 186.398 134.308 186.688 134.725 186.896C135.148 187.105 135.61 187.206 136.111 187.199C136.606 187.199 137.042 187.092 137.42 186.877C137.804 186.662 138.123 186.379 138.377 186.027C138.637 185.669 138.833 185.262 138.963 184.807C139.1 184.344 139.168 183.869 139.168 183.381C139.168 182.893 139.1 182.427 138.963 181.984C138.833 181.535 138.634 181.141 138.367 180.803C138.107 180.458 137.781 180.184 137.391 179.982C137.007 179.774 136.557 179.67 136.043 179.67ZM149.305 188H148.133V175.256L144.197 176.945V175.842L149.139 173.781H149.305V188ZM156.609 180.715L157.303 173.781H164.412V174.914H158.299L157.811 179.67C158.162 179.429 158.566 179.24 159.021 179.104C159.477 178.96 159.965 178.889 160.486 178.889C161.131 178.889 161.714 179.003 162.234 179.23C162.755 179.452 163.198 179.768 163.562 180.178C163.927 180.581 164.207 181.066 164.402 181.633C164.598 182.193 164.695 182.805 164.695 183.469C164.695 184.126 164.611 184.742 164.441 185.314C164.272 185.887 164.012 186.389 163.66 186.818C163.315 187.242 162.876 187.577 162.342 187.824C161.814 188.072 161.189 188.195 160.467 188.195C159.874 188.195 159.324 188.107 158.816 187.932C158.315 187.756 157.872 187.499 157.488 187.16C157.111 186.822 156.801 186.408 156.561 185.92C156.326 185.432 156.176 184.878 156.111 184.26H157.244C157.303 184.722 157.417 185.135 157.586 185.5C157.755 185.865 157.977 186.174 158.25 186.428C158.523 186.682 158.846 186.877 159.217 187.014C159.588 187.144 160.005 187.209 160.467 187.209C160.988 187.209 161.44 187.115 161.824 186.926C162.208 186.737 162.527 186.477 162.781 186.145C163.035 185.806 163.221 185.412 163.338 184.963C163.462 184.507 163.523 184.016 163.523 183.488C163.523 182.993 163.449 182.531 163.299 182.102C163.156 181.672 162.944 181.298 162.664 180.979C162.384 180.66 162.042 180.409 161.639 180.227C161.242 180.044 160.789 179.953 160.281 179.953C159.982 179.953 159.705 179.973 159.451 180.012C159.204 180.051 158.969 180.116 158.748 180.207C158.533 180.292 158.325 180.399 158.123 180.529C157.928 180.653 157.732 180.803 157.537 180.979L156.609 180.715Z" fill="white"/>
<path opacity="0.15" fill-rule="evenodd" clip-rule="evenodd" d="M128.138 144C128.138 66.692 189.974 4 266.227 4C342.479 4 404.316 66.692 404.316 144C404.324 159.025 401.946 173.953 397.273 188.212H355.984V70.416L266.227 161.416L176.469 70.416V188.212H135.18C130.492 173.957 128.114 159.026 128.138 144ZM206.407 142.628L245.596 182.36L266.227 203.276L286.857 182.36L326.019 142.628V216.744H384.21C359.989 257.064 316.215 284 266.227 284C216.239 284 172.464 257.064 148.216 216.744H206.407V142.628Z" fill="url(#paint1_radial_6_66)"/>
<path d="M125.1 67.29H127.84L131.24 77.55L134.69 67.29H137.39L139.87 82H137.17L135.59 72.71L132.46 82H129.99L126.9 72.71L125.29 82H122.56L125.1 67.29ZM148.11 66.92C150.19 66.92 151.977 67.6733 153.47 69.18C154.97 70.6867 155.72 72.5233 155.72 74.69C155.72 76.8367 154.98 78.6533 153.5 80.14C152.027 81.6267 150.237 82.37 148.13 82.37C145.923 82.37 144.09 81.6067 142.63 80.08C141.17 78.5533 140.44 76.74 140.44 74.64C140.44 73.2333 140.78 71.94 141.46 70.76C142.14 69.58 143.073 68.6467 144.26 67.96C145.453 67.2667 146.737 66.92 148.11 66.92ZM148.08 69.66C146.72 69.66 145.577 70.1333 144.65 71.08C143.723 72.0267 143.26 73.23 143.26 74.69C143.26 76.3167 143.843 77.6033 145.01 78.55C145.917 79.29 146.957 79.66 148.13 79.66C149.457 79.66 150.587 79.18 151.52 78.22C152.453 77.26 152.92 76.0767 152.92 74.67C152.92 73.27 152.45 72.0867 151.51 71.12C150.57 70.1467 149.427 69.66 148.08 69.66ZM157.41 67.29H160.09L166.4 76.97V67.29H169.2V82H166.51L160.21 72.35V82H157.41V67.29ZM171.61 67.29H179.64V70.03H174.39V72.69H179.64V75.38H174.39V79.25H179.64V82H171.61V67.29ZM181.49 67.29H184.46C186.087 67.29 187.243 67.4367 187.93 67.73C188.623 68.0167 189.18 68.4967 189.6 69.17C190.02 69.8433 190.23 70.64 190.23 71.56C190.23 72.5267 189.997 73.3367 189.53 73.99C189.07 74.6367 188.373 75.1267 187.44 75.46L190.92 82H187.86L184.55 75.77H184.29V82H181.49V67.29ZM184.29 73.04H185.17C186.063 73.04 186.677 72.9233 187.01 72.69C187.35 72.4567 187.52 72.07 187.52 71.53C187.52 71.21 187.437 70.9333 187.27 70.7C187.103 70.46 186.88 70.29 186.6 70.19C186.32 70.0833 185.807 70.03 185.06 70.03H184.29V73.04ZM199.17 66.92C201.25 66.92 203.037 67.6733 204.53 69.18C206.03 70.6867 206.78 72.5233 206.78 74.69C206.78 76.8367 206.04 78.6533 204.56 80.14C203.087 81.6267 201.297 82.37 199.19 82.37C196.983 82.37 195.15 81.6067 193.69 80.08C192.23 78.5533 191.5 76.74 191.5 74.64C191.5 73.2333 191.84 71.94 192.52 70.76C193.2 69.58 194.133 68.6467 195.32 67.96C196.513 67.2667 197.797 66.92 199.17 66.92ZM199.14 69.66C197.78 69.66 196.637 70.1333 195.71 71.08C194.783 72.0267 194.32 73.23 194.32 74.69C194.32 76.3167 194.903 77.6033 196.07 78.55C196.977 79.29 198.017 79.66 199.19 79.66C200.517 79.66 201.647 79.18 202.58 78.22C203.513 77.26 203.98 76.0767 203.98 74.67C203.98 73.27 203.51 72.0867 202.57 71.12C201.63 70.1467 200.487 69.66 199.14 69.66Z" fill="white"/>
<path d="M95.8226 60C88.1973 60 82.0137 66.2692 82.0137 74C82.0113 75.5026 82.2491 76.9957 82.7179 78.4212H86.8468V66.6416L95.8226 75.7416L104.798 66.6416V78.4212H108.927C109.394 76.9953 109.632 75.5025 109.631 74C109.631 66.2692 103.448 60 95.8226 60Z" fill="white"/>
<path d="M93.7595 77.836L89.8405 73.8628V81.2744H84.0215C86.4463 85.3064 90.8237 88 95.8226 88C100.821 88 105.199 85.3064 107.621 81.2744H101.802V73.8628L97.8856 77.836L95.8226 79.9276L93.7595 77.836Z" fill="white"/>
</g>
<defs>
<filter id="filter0_d_6_66" x="0" y="0" width="383" height="303" filterUnits="userSpaceOnUse" color-interpolation-filters="sRGB">
<feFlood flood-opacity="0" result="BackgroundImageFix"/>
<feColorMatrix in="SourceAlpha" type="matrix" values="0 0 0 0 0 0 0 0 0 0 0 0 0 0 0 0 0 0 127 0" result="hardAlpha"/>
<feOffset dy="20"/>
<feGaussianBlur stdDeviation="37.5"/>
<feColorMatrix type="matrix" values="0 0 0 0 0 0 0 0 0 0 0 0 0 0 0 0 0 0 1 0"/>
<feBlend mode="normal" in2="BackgroundImageFix" result="effect1_dropShadow_6_66"/>
<feBlend mode="normal" in="SourceGraphic" in2="effect1_dropShadow_6_66" result="shape"/>
</filter>
<linearGradient id="paint0_linear_6_66" x1="13.7598" y1="69.8135" x2="58.5098" y2="252.676" gradientUnits="userSpaceOnUse">
<stop stop-color="#FA6800"/>
<stop offset="1" stop-color="#FA6800" stop-opacity="0.01"/>
</linearGradient>
<radialGradient id="paint1_radial_6_66" cx="0" cy="0" r="1" gradientUnits="userSpaceOnUse" gradientTransform="translate(266.227 157.598) rotate(67.7237) scale(184.31 182.523)">
<stop stop-color="white"/>
<stop offset="1" stop-color="white" stop-opacity="0.01"/>
</radialGradient>
<clipPath id="clip0_6_66">
<rect width="260" height="170" fill="white" transform="translate(62 38)"/>
</clipPath>
</defs>
</svg>
