<svg width="193" height="174" viewBox="0 0 193 174" fill="none" xmlns="http://www.w3.org/2000/svg">
<path fill-rule="evenodd" clip-rule="evenodd" d="M26.2666 13.2776C26.2666 10.1051 28.8384 7.53333 32.0109 7.53333H177.915C181.088 7.53333 183.66 10.1051 183.66 13.2776V68.0036C183.66 71.1761 181.088 73.7479 177.915 73.7479H32.0109C28.8384 73.7479 26.2666 71.1761 26.2666 68.0036V13.2776Z" fill="#FA6800"/>
<g opacity="0.2">
<path fill-rule="evenodd" clip-rule="evenodd" d="M26.2666 47.9443C26.2666 44.7718 28.8384 42.2 32.0109 42.2H177.915C181.088 42.2 183.66 44.7718 183.66 47.9443V69.5624C183.66 72.7349 181.088 75.3067 177.915 75.3067H32.0109C28.8384 75.3067 26.2666 72.7349 26.2666 69.5624V47.9443Z" fill="url(#paint0_linear_0_872)" style="mix-blend-mode:overlay"/>
</g>
<path opacity="0.5" fill-rule="evenodd" clip-rule="evenodd" d="M104.664 34.2935C104.664 31.1211 107.236 28.5493 110.408 28.5493H152.916C156.088 28.5493 158.66 31.1211 158.66 34.2935V48.715C158.66 51.8875 156.088 54.4593 152.916 54.4593H110.408C107.236 54.4593 104.664 51.8875 104.664 48.715V34.2935Z" fill="white"/>
<path fill-rule="evenodd" clip-rule="evenodd" d="M77.0514 19.1118C66.3332 10.4281 50.5486 11.0892 40.5555 21.0823C30.5624 31.0754 29.9014 46.8599 38.5851 57.5781L38.4792 57.684L40.5101 59.7149L120.328 139.533C122.572 141.776 126.209 141.776 128.452 139.533L159.006 108.979C161.25 106.735 161.25 103.098 159.006 100.855L79.1881 21.0369L77.1572 19.006L77.0514 19.1118Z" fill="white"/>
<mask id="mask0_0_872" style="mask-type:alpha" maskUnits="userSpaceOnUse" x="1" y="9" width="166" height="165">
<path fill-rule="evenodd" clip-rule="evenodd" d="M30.1205 9.98605L166.084 149.172C166.084 149.172 145.497 173.727 140.148 173.727C134.799 173.727 1.95215 40.8966 1.95215 40.8966L30.1205 9.98605Z" fill="white"/>
</mask>
<g mask="url(#mask0_0_872)">
<path opacity="0.03" fill-rule="evenodd" clip-rule="evenodd" d="M38.5856 57.5781C29.9018 46.86 30.5629 31.0754 40.556 21.0823C50.5491 11.0892 66.3337 10.4281 77.0519 19.1119L77.1577 19.006L159.007 100.855C161.25 103.098 161.25 106.736 159.007 108.979L128.453 139.533C126.209 141.776 122.572 141.776 120.329 139.533L38.4797 57.684L38.5856 57.5781V57.5781Z" fill="url(#paint1_linear_0_872)"/>
</g>
<path fill-rule="evenodd" clip-rule="evenodd" d="M60.1464 57.3382C68.8707 57.3382 75.9431 50.2491 75.9431 41.5043C75.9431 32.7594 68.8707 25.6703 60.1464 25.6703C51.4221 25.6703 44.3496 32.7594 44.3496 41.5043C44.3496 50.2491 51.4221 57.3382 60.1464 57.3382Z" fill="#FA6800"/>
<defs>
<linearGradient id="paint0_linear_0_872" x1="122.364" y1="81.5129" x2="125.43" y2="47.5264" gradientUnits="userSpaceOnUse">
<stop stop-color="white" stop-opacity="0.5"/>
<stop offset="1"/>
</linearGradient>
<linearGradient id="paint1_linear_0_872" x1="64.5715" y1="77.1371" x2="64.5715" y2="141.216" gradientUnits="userSpaceOnUse">
<stop/>
<stop offset="1" stop-opacity="0.01"/>
</linearGradient>
</defs>
</svg>
