<svg width="50" height="50" viewBox="0 0 50 50" fill="none" xmlns="http://www.w3.org/2000/svg">
<path opacity="0.25" fill-rule="evenodd" clip-rule="evenodd" d="M24.8047 50C37.2095 50 47.2656 39.9439 47.2656 27.5391C47.2656 15.1342 37.2095 5.07812 24.8047 5.07812C12.3999 5.07812 2.34375 15.1342 2.34375 27.5391C2.34375 39.9439 12.3999 50 24.8047 50Z" fill="white" fill-opacity="0.01"/>
<path fill-rule="evenodd" clip-rule="evenodd" d="M25 50C38.8071 50 50 38.8071 50 25C50 11.1929 38.8071 0 25 0C11.1929 0 0 11.1929 0 25C0 38.8071 11.1929 50 25 50Z" fill="white"/>
<mask id="mask0_0_816" style="mask-type:alpha" maskUnits="userSpaceOnUse" x="0" y="0" width="50" height="50">
<path fill-rule="evenodd" clip-rule="evenodd" d="M25 50C38.8071 50 50 38.8071 50 25C50 11.1929 38.8071 0 25 0C11.1929 0 0 11.1929 0 25C0 38.8071 11.1929 50 25 50Z" fill="white"/>
</mask>
<g mask="url(#mask0_0_816)">
<path d="M44.3848 -19.5605C30.4431 -19.5605 -15.916 6.0589 -15.916 20.002C-15.9204 22.7121 0.455723 30.653 1.3129 33.2239H8.8619V11.9786L25.2728 28.3911L41.6837 11.9786V33.2239H49.2327C50.087 30.6523 61.0152 31.101 61.0137 28.3911C61.0137 14.4481 39.2145 0 25.2728 0" fill="#FA6800"/>
<path d="M14.283 25.0026V38.3699H3.68295C0.0628461 51.1875 16.0715 66.3125 25.1774 66.3125C34.2833 66.3125 58.2582 51.1016 46.6718 38.3699H36.0718V25.0026L28.938 32.1685L25.1799 35.9409L21.4218 32.1685L14.283 25.0026Z" fill="#4C4C4C"/>
</g>
</svg>
