<svg width="26" height="26" viewBox="0 0 26 26" fill="none" xmlns="http://www.w3.org/2000/svg">
<path fill-rule="evenodd" clip-rule="evenodd" d="M0 13C0 5.83191 5.83191 0 13 0C20.1687 0 26 5.83191 26 13C26 20.1687 20.1687 26 13 26C5.83191 26 0 20.1687 0 13ZM15.6605 17.9213L20.1817 13.4002C20.2342 13.3476 20.2755 13.2854 20.3043 13.2159C20.3614 13.078 20.3614 12.922 20.3043 12.7841C20.2755 12.7146 20.2342 12.6518 20.1817 12.5998L15.6605 8.07865C15.4395 7.85765 15.0823 7.85765 14.8613 8.07865C14.6403 8.29965 14.6403 8.65687 14.8613 8.87787L18.4182 12.4348H6.21739C5.90539 12.4348 5.65217 12.688 5.65217 13C5.65217 13.312 5.90539 13.5652 6.21739 13.5652H18.4182L14.8613 17.1221C14.6403 17.3431 14.6403 17.7003 14.8613 17.9213C14.9715 18.0316 15.1162 18.087 15.2609 18.087C15.4056 18.087 15.5503 18.0316 15.6605 17.9213Z" fill="white"/>
<path fill-rule="evenodd" clip-rule="evenodd" d="M17.7288 12.0158H5.52187C4.98501 12.0158 4.5498 12.4563 4.5498 12.9998C4.5498 13.5432 4.98501 13.9838 5.52187 13.9838H17.7286L14.5809 17.1703C14.2013 17.5546 14.2014 18.1776 14.581 18.5619C14.9606 18.9461 15.5761 18.9461 15.9557 18.5618L21.4498 12.9998L15.9567 7.4383C15.5771 7.05399 14.9617 7.05393 14.582 7.43815C14.2023 7.82238 14.2023 8.4454 14.5819 8.82971L17.7288 12.0158Z" fill="#FA7200"/>
</svg>
